<?xml version="1.0" standalone="no"?>
<!DOCTYPE svg PUBLIC "-//W3C//DTD SVG 20010904//EN"
 "http://www.w3.org/TR/2001/REC-SVG-20010904/DTD/svg10.dtd">
<svg version="1.0" xmlns="http://www.w3.org/2000/svg"
 width="592.000000pt" height="592.000000pt" viewBox="0 0 592.000000 592.000000"
 preserveAspectRatio="xMidYMid meet">
<metadata>
Created by potrace 1.14, written by Peter Selinger 2001-2017
</metadata>
<g transform="translate(0.000000,592.000000) scale(0.100000,-0.100000)"
fill="#000000" stroke="none">
<path d="M2849 5676 c-2 -2 -36 -6 -74 -10 -39 -4 -81 -8 -95 -11 -14 -2 -43
-6 -65 -10 -36 -5 -81 -12 -125 -20 -33 -6 -119 -28 -185 -47 -38 -11 -74 -21
-80 -23 -5 -1 -17 -5 -25 -8 -8 -3 -46 -17 -85 -31 -387 -137 -743 -368 -1035
-671 -67 -69 -220 -249 -220 -259 0 -6 -23 -35 -48 -61 -6 -8 -12 -16 -12 -19
0 -4 -15 -28 -33 -54 -73 -105 -177 -300 -231 -432 -15 -36 -31 -74 -36 -85
-44 -98 -129 -414 -146 -545 -2 -19 -6 -46 -9 -60 -6 -35 -18 -162 -17 -182 1
-26 -72 -41 -136 -27 -17 4 -34 3 -37 -1 -3 -4 -21 -4 -40 0 -19 4 -51 4 -69
0 -19 -4 -37 -5 -40 -2 -4 3 -6 -67 -6 -155 l0 -160 73 -2 c82 -3 82 -3 157 0
63 2 97 -6 97 -24 0 -11 10 -118 19 -192 5 -53 22 -139 44 -231 12 -49 23 -96
25 -105 12 -56 68 -222 114 -334 28 -69 121 -257 158 -320 132 -221 253 -376
427 -551 134 -133 185 -178 291 -257 28 -20 56 -42 63 -47 7 -6 66 -45 132
-85 259 -161 508 -266 795 -335 66 -16 134 -31 150 -34 17 -3 41 -7 55 -10 26
-5 76 -11 175 -23 126 -15 535 -7 635 12 14 3 41 7 60 9 20 3 47 7 60 10 14 3
36 8 50 10 99 16 332 86 466 140 342 137 634 328 904 593 355 347 600 777 726
1268 28 109 28 110 39 175 4 25 9 54 11 65 9 45 24 179 26 228 1 34 27 47 73
38 16 -3 45 -5 63 -3 l32 3 0 158 c0 143 -2 158 -17 159 -10 1 -46 2 -81 2
-71 1 -68 -2 -76 90 -8 96 -16 162 -22 190 -3 14 -7 39 -10 55 -2 17 -13 68
-25 115 -11 47 -23 94 -25 104 -7 38 -81 258 -104 311 -5 11 -27 60 -50 108
-22 49 -40 91 -40 93 0 17 -204 347 -235 380 -5 6 -21 26 -35 44 -77 103 -127
159 -254 285 -78 77 -177 167 -221 200 -44 33 -82 62 -85 66 -3 3 -20 14 -37
24 -18 11 -33 23 -33 27 0 4 -6 8 -13 8 -7 0 -22 8 -33 18 -10 10 -26 21 -34
25 -8 4 -37 21 -65 37 -148 90 -388 197 -560 251 -38 12 -77 24 -85 27 -8 3
-24 7 -34 9 -11 2 -47 11 -80 19 -71 18 -202 43 -266 50 -25 3 -63 7 -85 10
-44 6 -461 15 -466 10z"/>
</g>
</svg>
